<svg width="92" height="86" viewBox="0 0 92 86" fill="none" xmlns="http://www.w3.org/2000/svg">
<mask id="path-1-outside-1" maskUnits="userSpaceOnUse" x="-0.5" y="0" width="93" height="86" fill="black">
<rect fill="white" x="-0.5" width="93" height="86"/>
<path d="M74.8284 28.2212C73.8687 27.8838 72.9091 27.565 71.9494 27.265C72.109 26.5713 72.2512 25.8776 72.3934 25.1839C74.5797 14.0095 73.14 5.02867 68.2878 2.06635C63.6134 -0.764744 55.9888 2.17882 48.275 9.26597C47.5106 9.9597 46.7644 10.6909 46.0535 11.4221C45.5734 10.9346 45.076 10.4472 44.5781 9.97842C36.4912 2.40381 28.3865 -0.783503 23.5344 2.19758C18.8778 5.04743 17.4914 13.5032 19.4465 24.0777C19.642 25.1276 19.8553 26.1589 20.1041 27.2088C18.9666 27.5463 17.8469 27.9212 16.7983 28.315C7.30722 31.7836 0.5 37.2582 0.5 42.9207C0.5 48.7704 7.75156 54.6385 17.6158 58.2011C18.4156 58.4823 19.2154 58.7634 20.033 59.007C19.7664 60.1322 19.5353 61.2381 19.3221 62.382C17.4559 72.7875 18.9133 81.0371 23.5699 83.8685C28.3688 86.7932 36.4379 83.7933 44.2938 76.5373C44.916 75.9561 45.5378 75.3562 46.16 74.719C46.9419 75.525 47.7597 76.2937 48.5772 77.0437C56.184 83.9433 63.7025 86.7368 68.3413 83.9057C73.14 80.9811 74.7041 72.1127 72.6778 61.3133C72.5178 60.4881 72.3403 59.6446 72.1447 58.7822C72.7134 58.6134 73.2644 58.4258 73.8153 58.2383C84.0706 54.6572 91.5 48.8639 91.5 42.9207C91.5 37.2394 84.4972 31.7273 74.8284 28.2212ZM50.7809 12.3033C57.3928 6.22861 63.5603 3.8475 66.3685 5.55365C69.3722 7.37231 70.5275 14.7219 68.6435 24.3777C68.5191 25.0152 68.3943 25.6339 68.2347 26.2526C64.2887 25.3151 60.2897 24.6402 56.2731 24.2652C53.9625 20.7779 51.4388 17.4405 48.7016 14.3095C49.3947 13.6157 50.07 12.9595 50.7809 12.3033ZM30.2172 52.6513C31.1236 54.2825 32.0478 55.9136 33.0254 57.5071C30.2528 57.1883 27.4978 56.7199 24.7785 56.1012C25.5606 53.4013 26.5381 50.6075 27.6756 47.7576C28.4932 49.4075 29.3285 51.0386 30.2172 52.6513ZM24.8318 30.0961C27.3912 29.4962 30.1105 29.0087 32.9365 28.6337C31.9945 30.1899 31.0703 31.7836 30.1994 33.396C29.3285 34.9896 28.4754 36.621 27.6756 38.2709C26.5558 35.477 25.6139 32.7398 24.8318 30.0961ZM29.7018 43.0143C30.8748 40.4268 32.1545 37.8957 33.5053 35.4022C34.8561 32.9085 36.3135 30.4899 37.842 28.1088C40.5082 27.9025 43.2275 27.79 46 27.79C48.7725 27.79 51.5097 27.9025 54.1582 28.1088C55.6688 30.4711 57.1084 32.8897 58.4769 35.3647C59.8456 37.8393 61.1253 40.3708 62.3337 42.9391C61.1428 45.5265 59.8631 48.0764 58.4947 50.5887C57.1441 53.0825 55.7044 55.5012 54.1934 57.9011C51.5453 58.1071 48.7903 58.2011 46 58.2011C43.2097 58.2011 40.5082 58.1071 37.8953 57.9383C36.349 55.5572 34.8916 53.1201 33.5231 50.6263C32.1545 48.1328 30.8926 45.6017 29.7018 43.0143ZM61.8006 52.6138C62.7068 50.9638 63.5604 49.2951 64.3957 47.6076C65.5332 50.3263 66.5285 53.0825 67.399 55.9136C64.6444 56.5699 61.8537 57.0759 59.0456 57.4135C60.0053 55.8384 60.9119 54.2261 61.8006 52.6138ZM64.36 38.2709C63.5247 36.621 62.6716 34.9709 61.7828 33.3585C60.9119 31.7648 60.0057 30.1899 59.0634 28.6337C61.925 29.0087 64.6622 29.5149 67.2216 30.1336C66.4041 32.9085 65.444 35.6082 64.36 38.2709ZM46.0356 17.178C47.9019 19.3154 49.6612 21.5653 51.2966 23.8902C47.7772 23.7215 44.2403 23.7215 40.7212 23.8902C42.4631 21.4716 44.2581 19.2217 46.0356 17.178ZM25.4183 5.68492C28.4043 3.8475 35.0338 6.47236 42.0188 12.997C42.4631 13.4095 42.9075 13.8595 43.3693 14.3095C40.6147 17.4405 38.0731 20.7779 35.7447 24.2652C31.7279 24.6402 27.7467 25.2964 23.801 26.2151C23.5699 25.2589 23.3744 24.284 23.1789 23.309C21.5082 14.2345 22.6102 7.39107 25.4183 5.68492ZM21.0639 55.1072C20.3174 54.8824 19.5887 54.6384 18.86 54.3761C15.0742 53.1201 10.773 51.1326 7.66269 48.5264C5.86756 47.214 4.65897 45.1889 4.32128 42.9207C4.32128 39.4892 9.93769 35.1023 18.0424 32.121C19.0555 31.746 20.0863 31.4086 21.1172 31.0898C22.3258 35.1583 23.7832 39.1521 25.4717 43.0143C23.7654 46.9328 22.2902 50.9826 21.0639 55.1072ZM41.7878 73.4815C38.855 76.3125 35.4603 78.5624 31.7635 80.0999C29.7906 81.0935 27.5156 81.1871 25.4895 80.3435C22.6635 78.6188 21.4904 72.0003 23.09 63.0944C23.2856 62.0445 23.4988 60.9945 23.7477 59.9634C27.7289 60.8633 31.7457 61.4821 35.8158 61.8009C38.1619 65.3067 40.7391 68.6629 43.4941 71.8128C42.9253 72.3939 42.3566 72.9563 41.7878 73.4815ZM46.1422 68.9253C44.3294 66.863 42.5166 64.5755 40.7569 62.1197C42.4631 62.1945 44.2225 62.232 46 62.232C47.8306 62.232 49.6256 62.1945 51.4031 62.1009C49.7678 64.4819 48.0084 66.7506 46.1422 68.9253ZM69.3722 74.5502C69.2122 76.8373 68.1456 78.9748 66.4394 80.4187C63.6134 82.1434 57.5885 79.8935 51.0831 74.0062C50.3369 73.3315 49.5903 72.6003 48.8259 71.8504C51.5453 68.6817 54.0512 65.3255 56.3262 61.8009C60.3966 61.4445 64.4487 60.7881 68.4478 59.8322C68.6256 60.6009 68.7856 61.3697 68.9278 62.1197C69.7988 66.1695 69.941 70.3876 69.3722 74.5502ZM72.6069 54.3949C72.109 54.5637 71.6116 54.7324 71.0963 54.8824C69.8519 50.795 68.3234 46.8017 66.5637 42.9207C68.27 39.0957 69.7097 35.1583 70.9185 31.1273C71.8425 31.4086 72.7313 31.7086 73.5844 32.0085C81.8669 35.0083 87.6788 39.4708 87.6788 42.8831C87.6788 46.5577 81.476 51.3014 72.6069 54.3949ZM46 51.5826C50.4965 51.5826 54.1403 47.7388 54.1403 42.9955C54.1403 38.2521 50.4965 34.4084 46 34.4084C41.5035 34.4084 37.8597 38.2521 37.8597 42.9955C37.8597 47.7388 41.5035 51.5826 46 51.5826Z"/>
</mask>
<path d="M74.8284 28.2212C73.8687 27.8838 72.9091 27.565 71.9494 27.265C72.109 26.5713 72.2512 25.8776 72.3934 25.1839C74.5797 14.0095 73.14 5.02867 68.2878 2.06635C63.6134 -0.764744 55.9888 2.17882 48.275 9.26597C47.5106 9.9597 46.7644 10.6909 46.0535 11.4221C45.5734 10.9346 45.076 10.4472 44.5781 9.97842C36.4912 2.40381 28.3865 -0.783503 23.5344 2.19758C18.8778 5.04743 17.4914 13.5032 19.4465 24.0777C19.642 25.1276 19.8553 26.1589 20.1041 27.2088C18.9666 27.5463 17.8469 27.9212 16.7983 28.315C7.30722 31.7836 0.5 37.2582 0.5 42.9207C0.5 48.7704 7.75156 54.6385 17.6158 58.2011C18.4156 58.4823 19.2154 58.7634 20.033 59.007C19.7664 60.1322 19.5353 61.2381 19.3221 62.382C17.4559 72.7875 18.9133 81.0371 23.5699 83.8685C28.3688 86.7932 36.4379 83.7933 44.2938 76.5373C44.916 75.9561 45.5378 75.3562 46.16 74.719C46.9419 75.525 47.7597 76.2937 48.5772 77.0437C56.184 83.9433 63.7025 86.7368 68.3413 83.9057C73.14 80.9811 74.7041 72.1127 72.6778 61.3133C72.5178 60.4881 72.3403 59.6446 72.1447 58.7822C72.7134 58.6134 73.2644 58.4258 73.8153 58.2383C84.0706 54.6572 91.5 48.8639 91.5 42.9207C91.5 37.2394 84.4972 31.7273 74.8284 28.2212ZM50.7809 12.3033C57.3928 6.22861 63.5603 3.8475 66.3685 5.55365C69.3722 7.37231 70.5275 14.7219 68.6435 24.3777C68.5191 25.0152 68.3943 25.6339 68.2347 26.2526C64.2887 25.3151 60.2897 24.6402 56.2731 24.2652C53.9625 20.7779 51.4388 17.4405 48.7016 14.3095C49.3947 13.6157 50.07 12.9595 50.7809 12.3033ZM30.2172 52.6513C31.1236 54.2825 32.0478 55.9136 33.0254 57.5071C30.2528 57.1883 27.4978 56.7199 24.7785 56.1012C25.5606 53.4013 26.5381 50.6075 27.6756 47.7576C28.4932 49.4075 29.3285 51.0386 30.2172 52.6513ZM24.8318 30.0961C27.3912 29.4962 30.1105 29.0087 32.9365 28.6337C31.9945 30.1899 31.0703 31.7836 30.1994 33.396C29.3285 34.9896 28.4754 36.621 27.6756 38.2709C26.5558 35.477 25.6139 32.7398 24.8318 30.0961ZM29.7018 43.0143C30.8748 40.4268 32.1545 37.8957 33.5053 35.4022C34.8561 32.9085 36.3135 30.4899 37.842 28.1088C40.5082 27.9025 43.2275 27.79 46 27.79C48.7725 27.79 51.5097 27.9025 54.1582 28.1088C55.6688 30.4711 57.1084 32.8897 58.4769 35.3647C59.8456 37.8393 61.1253 40.3708 62.3337 42.9391C61.1428 45.5265 59.8631 48.0764 58.4947 50.5887C57.1441 53.0825 55.7044 55.5012 54.1934 57.9011C51.5453 58.1071 48.7903 58.2011 46 58.2011C43.2097 58.2011 40.5082 58.1071 37.8953 57.9383C36.349 55.5572 34.8916 53.1201 33.5231 50.6263C32.1545 48.1328 30.8926 45.6017 29.7018 43.0143ZM61.8006 52.6138C62.7068 50.9638 63.5604 49.2951 64.3957 47.6076C65.5332 50.3263 66.5285 53.0825 67.399 55.9136C64.6444 56.5699 61.8537 57.0759 59.0456 57.4135C60.0053 55.8384 60.9119 54.2261 61.8006 52.6138ZM64.36 38.2709C63.5247 36.621 62.6716 34.9709 61.7828 33.3585C60.9119 31.7648 60.0057 30.1899 59.0634 28.6337C61.925 29.0087 64.6622 29.5149 67.2216 30.1336C66.4041 32.9085 65.444 35.6082 64.36 38.2709ZM46.0356 17.178C47.9019 19.3154 49.6612 21.5653 51.2966 23.8902C47.7772 23.7215 44.2403 23.7215 40.7212 23.8902C42.4631 21.4716 44.2581 19.2217 46.0356 17.178ZM25.4183 5.68492C28.4043 3.8475 35.0338 6.47236 42.0188 12.997C42.4631 13.4095 42.9075 13.8595 43.3693 14.3095C40.6147 17.4405 38.0731 20.7779 35.7447 24.2652C31.7279 24.6402 27.7467 25.2964 23.801 26.2151C23.5699 25.2589 23.3744 24.284 23.1789 23.309C21.5082 14.2345 22.6102 7.39107 25.4183 5.68492ZM21.0639 55.1072C20.3174 54.8824 19.5887 54.6384 18.86 54.3761C15.0742 53.1201 10.773 51.1326 7.66269 48.5264C5.86756 47.214 4.65897 45.1889 4.32128 42.9207C4.32128 39.4892 9.93769 35.1023 18.0424 32.121C19.0555 31.746 20.0863 31.4086 21.1172 31.0898C22.3258 35.1583 23.7832 39.1521 25.4717 43.0143C23.7654 46.9328 22.2902 50.9826 21.0639 55.1072ZM41.7878 73.4815C38.855 76.3125 35.4603 78.5624 31.7635 80.0999C29.7906 81.0935 27.5156 81.1871 25.4895 80.3435C22.6635 78.6188 21.4904 72.0003 23.09 63.0944C23.2856 62.0445 23.4988 60.9945 23.7477 59.9634C27.7289 60.8633 31.7457 61.4821 35.8158 61.8009C38.1619 65.3067 40.7391 68.6629 43.4941 71.8128C42.9253 72.3939 42.3566 72.9563 41.7878 73.4815ZM46.1422 68.9253C44.3294 66.863 42.5166 64.5755 40.7569 62.1197C42.4631 62.1945 44.2225 62.232 46 62.232C47.8306 62.232 49.6256 62.1945 51.4031 62.1009C49.7678 64.4819 48.0084 66.7506 46.1422 68.9253ZM69.3722 74.5502C69.2122 76.8373 68.1456 78.9748 66.4394 80.4187C63.6134 82.1434 57.5885 79.8935 51.0831 74.0062C50.3369 73.3315 49.5903 72.6003 48.8259 71.8504C51.5453 68.6817 54.0512 65.3255 56.3262 61.8009C60.3966 61.4445 64.4487 60.7881 68.4478 59.8322C68.6256 60.6009 68.7856 61.3697 68.9278 62.1197C69.7988 66.1695 69.941 70.3876 69.3722 74.5502ZM72.6069 54.3949C72.109 54.5637 71.6116 54.7324 71.0963 54.8824C69.8519 50.795 68.3234 46.8017 66.5637 42.9207C68.27 39.0957 69.7097 35.1583 70.9185 31.1273C71.8425 31.4086 72.7313 31.7086 73.5844 32.0085C81.8669 35.0083 87.6788 39.4708 87.6788 42.8831C87.6788 46.5577 81.476 51.3014 72.6069 54.3949ZM46 51.5826C50.4965 51.5826 54.1403 47.7388 54.1403 42.9955C54.1403 38.2521 50.4965 34.4084 46 34.4084C41.5035 34.4084 37.8597 38.2521 37.8597 42.9955C37.8597 47.7388 41.5035 51.5826 46 51.5826Z" fill="#01D1F7"/>
<path d="M74.8284 28.2212C73.8687 27.8838 72.9091 27.565 71.9494 27.265C72.109 26.5713 72.2512 25.8776 72.3934 25.1839C74.5797 14.0095 73.14 5.02867 68.2878 2.06635C63.6134 -0.764744 55.9888 2.17882 48.275 9.26597C47.5106 9.9597 46.7644 10.6909 46.0535 11.4221C45.5734 10.9346 45.076 10.4472 44.5781 9.97842C36.4912 2.40381 28.3865 -0.783503 23.5344 2.19758C18.8778 5.04743 17.4914 13.5032 19.4465 24.0777C19.642 25.1276 19.8553 26.1589 20.1041 27.2088C18.9666 27.5463 17.8469 27.9212 16.7983 28.315C7.30722 31.7836 0.5 37.2582 0.5 42.9207C0.5 48.7704 7.75156 54.6385 17.6158 58.2011C18.4156 58.4823 19.2154 58.7634 20.033 59.007C19.7664 60.1322 19.5353 61.2381 19.3221 62.382C17.4559 72.7875 18.9133 81.0371 23.5699 83.8685C28.3688 86.7932 36.4379 83.7933 44.2938 76.5373C44.916 75.9561 45.5378 75.3562 46.16 74.719C46.9419 75.525 47.7597 76.2937 48.5772 77.0437C56.184 83.9433 63.7025 86.7368 68.3413 83.9057C73.14 80.9811 74.7041 72.1127 72.6778 61.3133C72.5178 60.4881 72.3403 59.6446 72.1447 58.7822C72.7134 58.6134 73.2644 58.4258 73.8153 58.2383C84.0706 54.6572 91.5 48.8639 91.5 42.9207C91.5 37.2394 84.4972 31.7273 74.8284 28.2212ZM50.7809 12.3033C57.3928 6.22861 63.5603 3.8475 66.3685 5.55365C69.3722 7.37231 70.5275 14.7219 68.6435 24.3777C68.5191 25.0152 68.3943 25.6339 68.2347 26.2526C64.2887 25.3151 60.2897 24.6402 56.2731 24.2652C53.9625 20.7779 51.4388 17.4405 48.7016 14.3095C49.3947 13.6157 50.07 12.9595 50.7809 12.3033ZM30.2172 52.6513C31.1236 54.2825 32.0478 55.9136 33.0254 57.5071C30.2528 57.1883 27.4978 56.7199 24.7785 56.1012C25.5606 53.4013 26.5381 50.6075 27.6756 47.7576C28.4932 49.4075 29.3285 51.0386 30.2172 52.6513ZM24.8318 30.0961C27.3912 29.4962 30.1105 29.0087 32.9365 28.6337C31.9945 30.1899 31.0703 31.7836 30.1994 33.396C29.3285 34.9896 28.4754 36.621 27.6756 38.2709C26.5558 35.477 25.6139 32.7398 24.8318 30.0961ZM29.7018 43.0143C30.8748 40.4268 32.1545 37.8957 33.5053 35.4022C34.8561 32.9085 36.3135 30.4899 37.842 28.1088C40.5082 27.9025 43.2275 27.79 46 27.79C48.7725 27.79 51.5097 27.9025 54.1582 28.1088C55.6688 30.4711 57.1084 32.8897 58.4769 35.3647C59.8456 37.8393 61.1253 40.3708 62.3337 42.9391C61.1428 45.5265 59.8631 48.0764 58.4947 50.5887C57.1441 53.0825 55.7044 55.5012 54.1934 57.9011C51.5453 58.1071 48.7903 58.2011 46 58.2011C43.2097 58.2011 40.5082 58.1071 37.8953 57.9383C36.349 55.5572 34.8916 53.1201 33.5231 50.6263C32.1545 48.1328 30.8926 45.6017 29.7018 43.0143ZM61.8006 52.6138C62.7068 50.9638 63.5604 49.2951 64.3957 47.6076C65.5332 50.3263 66.5285 53.0825 67.399 55.9136C64.6444 56.5699 61.8537 57.0759 59.0456 57.4135C60.0053 55.8384 60.9119 54.2261 61.8006 52.6138ZM64.36 38.2709C63.5247 36.621 62.6716 34.9709 61.7828 33.3585C60.9119 31.7648 60.0057 30.1899 59.0634 28.6337C61.925 29.0087 64.6622 29.5149 67.2216 30.1336C66.4041 32.9085 65.444 35.6082 64.36 38.2709ZM46.0356 17.178C47.9019 19.3154 49.6612 21.5653 51.2966 23.8902C47.7772 23.7215 44.2403 23.7215 40.7212 23.8902C42.4631 21.4716 44.2581 19.2217 46.0356 17.178ZM25.4183 5.68492C28.4043 3.8475 35.0338 6.47236 42.0188 12.997C42.4631 13.4095 42.9075 13.8595 43.3693 14.3095C40.6147 17.4405 38.0731 20.7779 35.7447 24.2652C31.7279 24.6402 27.7467 25.2964 23.801 26.2151C23.5699 25.2589 23.3744 24.284 23.1789 23.309C21.5082 14.2345 22.6102 7.39107 25.4183 5.68492ZM21.0639 55.1072C20.3174 54.8824 19.5887 54.6384 18.86 54.3761C15.0742 53.1201 10.773 51.1326 7.66269 48.5264C5.86756 47.214 4.65897 45.1889 4.32128 42.9207C4.32128 39.4892 9.93769 35.1023 18.0424 32.121C19.0555 31.746 20.0863 31.4086 21.1172 31.0898C22.3258 35.1583 23.7832 39.1521 25.4717 43.0143C23.7654 46.9328 22.2902 50.9826 21.0639 55.1072ZM41.7878 73.4815C38.855 76.3125 35.4603 78.5624 31.7635 80.0999C29.7906 81.0935 27.5156 81.1871 25.4895 80.3435C22.6635 78.6188 21.4904 72.0003 23.09 63.0944C23.2856 62.0445 23.4988 60.9945 23.7477 59.9634C27.7289 60.8633 31.7457 61.4821 35.8158 61.8009C38.1619 65.3067 40.7391 68.6629 43.4941 71.8128C42.9253 72.3939 42.3566 72.9563 41.7878 73.4815ZM46.1422 68.9253C44.3294 66.863 42.5166 64.5755 40.7569 62.1197C42.4631 62.1945 44.2225 62.232 46 62.232C47.8306 62.232 49.6256 62.1945 51.4031 62.1009C49.7678 64.4819 48.0084 66.7506 46.1422 68.9253ZM69.3722 74.5502C69.2122 76.8373 68.1456 78.9748 66.4394 80.4187C63.6134 82.1434 57.5885 79.8935 51.0831 74.0062C50.3369 73.3315 49.5903 72.6003 48.8259 71.8504C51.5453 68.6817 54.0512 65.3255 56.3262 61.8009C60.3966 61.4445 64.4487 60.7881 68.4478 59.8322C68.6256 60.6009 68.7856 61.3697 68.9278 62.1197C69.7988 66.1695 69.941 70.3876 69.3722 74.5502ZM72.6069 54.3949C72.109 54.5637 71.6116 54.7324 71.0963 54.8824C69.8519 50.795 68.3234 46.8017 66.5637 42.9207C68.27 39.0957 69.7097 35.1583 70.9185 31.1273C71.8425 31.4086 72.7313 31.7086 73.5844 32.0085C81.8669 35.0083 87.6788 39.4708 87.6788 42.8831C87.6788 46.5577 81.476 51.3014 72.6069 54.3949ZM46 51.5826C50.4965 51.5826 54.1403 47.7388 54.1403 42.9955C54.1403 38.2521 50.4965 34.4084 46 34.4084C41.5035 34.4084 37.8597 38.2521 37.8597 42.9955C37.8597 47.7388 41.5035 51.5826 46 51.5826Z" stroke="#01D1F7" stroke-width="0.4" mask="url(#path-1-outside-1)"/>
</svg>
